<?xml version="1.0" standalone="no"?>
<!DOCTYPE svg PUBLIC "-//W3C//DTD SVG 20010904//EN"
 "http://www.w3.org/TR/2001/REC-SVG-20010904/DTD/svg10.dtd">
<svg version="1.0" xmlns="http://www.w3.org/2000/svg"
 width="797.000000pt" height="573.000000pt" viewBox="0 0 797.000000 573.000000"
 preserveAspectRatio="xMidYMid meet">

<g transform="translate(0.000000,573.000000) scale(0.100000,-0.100000)"
fill="#000000" stroke="none">
<path d="M2822 4083 c3 -43 6 -48 28 -51 65 -6 149 -36 191 -67 58 -41 94
-112 109 -210 7 -47 10 -460 8 -1280 l-3 -1210 -22 -65 c-38 -113 -123 -176
-260 -195 l-53 -7 0 -43 0 -43 108 -6 c127 -8 594 -7 845 1 l177 5 0 44 c0 42
-1 43 -37 49 -83 14 -100 18 -143 40 -135 69 -160 162 -160 605 0 387 18 517
101 715 151 362 537 649 905 672 127 8 201 -19 245 -90 17 -28 19 -29 26 -11
4 10 8 55 8 100 0 72 -3 86 -30 130 -47 75 -115 106 -248 112 l-103 4 -48 -41
c-39 -34 -55 -41 -89 -41 -36 0 -46 6 -86 48 -25 27 -62 55 -81 62 -76 29 -56
33 146 27 110 -3 208 -9 217 -13 27 -10 21 26 -13 79 -38 60 -98 103 -163 117
-30 6 -194 11 -380 13 -369 2 -350 7 -297 -76 25 -40 67 -78 125 -112 14 -9 6
-21 -63 -91 -61 -62 -89 -101 -120 -163 l-40 -82 -6 153 c-3 84 -5 293 -3 463
l2 310 380 0 c363 0 384 -1 465 -23 414 -110 690 -489 690 -947 0 -332 -148
-635 -388 -796 -88 -58 -86 -58 -210 2 -168 82 -271 227 -280 394 -5 95 8 168
43 237 l24 48 -32 -16 c-148 -76 -296 -227 -392 -399 -73 -130 -126 -317 -140
-496 l-7 -87 49 -10 c196 -42 614 -52 798 -18 531 97 851 374 977 846 29 109
37 392 14 514 -37 192 -100 342 -203 481 -171 231 -417 373 -763 441 -75 15
-191 18 -953 21 l-868 4 3 -48z"/>
</g>
</svg>
