<?xml version="1.0" standalone="no"?>
<!DOCTYPE svg PUBLIC "-//W3C//DTD SVG 20010904//EN"
 "http://www.w3.org/TR/2001/REC-SVG-20010904/DTD/svg10.dtd">
<svg version="1.0" xmlns="http://www.w3.org/2000/svg"
 width="795.000000pt" height="795.000000pt" viewBox="0 0 795.000000 795.000000"
 preserveAspectRatio="xMidYMid meet">

<g transform="translate(0.000000,795.000000) scale(0.100000,-0.100000)"
fill="#000000" stroke="none">
<path d="M3912 5859 c-56 -117 -143 -208 -251 -262 -41 -20 -80 -37 -87 -37
-9 0 -14 -11 -14 -29 0 -26 8 -32 86 -70 118 -56 208 -146 264 -262 31 -65 46
-86 66 -91 19 -5 27 -2 30 10 23 73 86 173 146 233 61 61 152 118 231 143 13
4 17 14 15 32 -2 21 -13 30 -60 49 -141 57 -250 168 -315 320 -16 38 -27 51
-45 53 -20 2 -29 -10 -66 -89z"/>
<path d="M2192 4723 l4 -548 27 -88 c90 -293 290 -488 585 -574 46 -13 122
-18 387 -22 l330 -6 3 -358 c3 -394 -2 -436 -57 -545 -60 -119 -182 -223 -309
-262 -58 -18 -93 -20 -368 -20 l-304 0 0 368 c0 405 3 434 62 544 17 32 29 60
27 61 -2 2 -28 13 -57 25 -30 12 -84 42 -122 67 -37 25 -71 45 -74 45 -14 0
-95 -187 -113 -260 -16 -68 -18 -128 -18 -610 l0 -535 465 0 c414 0 473 2 539
18 302 73 535 313 606 622 14 62 15 180 13 1020 l-3 950 -33 95 c-109 313
-378 526 -700 556 l-73 7 3 -149 3 -148 40 -3 c167 -14 338 -131 414 -282 57
-113 62 -152 59 -548 l-3 -358 -305 1 c-290 0 -308 1 -369 23 -171 60 -302
199 -346 366 -12 50 -15 144 -15 577 l0 518 -151 0 -150 0 3 -547z"/>
<path d="M4790 5255 c-305 -61 -546 -282 -632 -581 l-23 -79 0 -960 0 -960 23
-79 c80 -275 288 -482 572 -567 72 -22 91 -23 553 -27 l478 -3 -3 553 -4 553
-27 90 c-48 153 -133 287 -247 386 -33 29 -60 55 -60 58 1 3 21 22 46 41 107
82 218 254 265 410 22 73 23 88 27 628 l3 552 -453 -1 c-329 -1 -471 -4 -518
-14z m660 -1065 c-18 -81 -77 -187 -141 -251 -66 -66 -118 -99 -209 -130 -62
-22 -80 -23 -370 -23 l-305 -1 -3 348 c-2 278 1 361 13 420 37 179 155 320
327 390 49 20 75 22 373 27 l320 5 3 -365 c2 -250 -1 -382 -8 -420z m-399
-714 c188 -40 344 -189 394 -377 12 -42 15 -136 15 -426 l0 -373 -297 0 c-169
0 -317 5 -343 11 -164 38 -316 180 -372 348 -21 62 -22 87 -26 434 -2 203 -1
375 2 383 8 20 531 20 627 0z"/>
</g>
</svg>
